<svg width="63" height="63" viewBox="0 0 63 63" fill="none" xmlns="http://www.w3.org/2000/svg">
<circle cx="31.5" cy="31.5" r="29" stroke="black" stroke-width="5"/>
<path d="M21.4773 27.2045V44.3864H15.75V27.2045H21.4773ZM27.2045 44.3864C26.4451 44.3864 25.7167 44.0847 25.1796 43.5476C24.6426 43.0106 24.3409 42.2822 24.3409 41.5227V27.2045C24.3409 26.417 24.6559 25.7011 25.1857 25.1857L34.607 15.75L36.1248 17.2677C36.5114 17.6543 36.7548 18.1841 36.7548 18.7711L36.7118 19.2293L35.3516 25.7727H44.3864C45.1458 25.7727 45.8742 26.0744 46.4113 26.6115C46.9483 27.1485 47.25 27.8769 47.25 28.6364V31.5C47.25 31.8723 47.1784 32.2159 47.0495 32.5452L42.7255 42.6395C42.2959 43.6705 41.2793 44.3864 40.0909 44.3864H27.2045ZM27.2045 41.5227H40.1339L44.3864 31.5V28.6364H31.8007L33.4186 21.0191L27.2045 27.2475V41.5227Z" fill="black"/>
</svg>
