<svg width="63" height="63" viewBox="0 0 63 63" fill="none" xmlns="http://www.w3.org/2000/svg">
<circle cx="31.5" cy="31.5" r="29" stroke="black" stroke-width="5"/>
<path d="M41.5227 35.7951V18.6133H47.25V35.7951H41.5227ZM35.7955 18.6133C36.5549 18.6133 37.2833 18.915 37.8204 19.452C38.3574 19.9891 38.6591 20.7174 38.6591 21.4769V35.7951C38.6591 36.5826 38.3441 37.2985 37.8143 37.814L28.393 47.2496L26.8752 45.7319C26.4886 45.3453 26.2452 44.8156 26.2452 44.2142L26.2882 43.7703L27.6484 37.2269H18.6136C17.8542 37.2269 17.1258 36.9252 16.5887 36.3882C16.0517 35.8511 15.75 35.1228 15.75 34.3633V31.4996C15.75 31.1274 15.8216 30.7837 15.9505 30.4544L20.2745 20.3601C20.7041 19.3292 21.7207 18.6133 22.9091 18.6133H35.7955ZM35.7955 21.4769H22.8661L18.6136 31.4996V34.3633H31.185L29.567 41.9806L35.7955 35.7521V21.4769Z" fill="black"/>
</svg>
