<svg xmlns="http://www.w3.org/2000/svg" width="63" height="63" viewBox="0 0 63 63" fill="none">
  <g clip-path="url(#clip0_230_154)">
    <path d="M28.397 50.1129H34.6016V43.9084H28.397V50.1129ZM31.4993 0.476562C27.4253 0.476562 23.3913 1.27899 19.6274 2.83803C15.8636 4.39706 12.4436 6.68218 9.56291 9.56291C3.74502 15.3808 0.476563 23.2715 0.476562 31.4993C0.476563 39.727 3.74502 47.6178 9.56291 53.4357C12.4436 56.3164 15.8636 58.6015 19.6274 60.1606C23.3913 61.7196 27.4253 62.522 31.4993 62.522C39.727 62.522 47.6178 59.2536 53.4357 53.4357C59.2536 47.6178 62.522 39.727 62.522 31.4993C62.522 27.4253 61.7196 23.3913 60.1606 19.6274C58.6015 15.8636 56.3164 12.4436 53.4357 9.56291C50.5549 6.68218 47.135 4.39706 43.3712 2.83803C39.6073 1.27899 35.5732 0.476563 31.4993 0.476562ZM31.4993 56.3175C17.8183 56.3175 6.68111 45.1803 6.68111 31.4993C6.68111 17.8183 17.8183 6.68111 31.4993 6.68111C45.1803 6.68111 56.3175 17.8183 56.3175 31.4993C56.3175 45.1803 45.1803 56.3175 31.4993 56.3175ZM31.4993 12.8857C28.2082 12.8857 25.0519 14.193 22.7247 16.5202C20.3976 18.8473 19.0902 22.0036 19.0902 25.2947H25.2947C25.2947 23.6492 25.9484 22.071 27.112 20.9075C28.2756 19.7439 29.8537 19.0902 31.4993 19.0902C33.1448 19.0902 34.723 19.7439 35.8866 20.9075C37.0501 22.071 37.7038 23.6492 37.7038 25.2947C37.7038 31.4993 28.397 30.7237 28.397 40.8061H34.6016C34.6016 33.826 43.9084 33.0504 43.9084 25.2947C43.9084 22.0036 42.601 18.8473 40.2738 16.5202C37.9467 14.193 34.7904 12.8857 31.4993 12.8857Z" fill="black"/>
  </g>
  <defs>
    <clipPath id="clip0_230_154">
      <rect width="63" height="63" fill="white"/>
    </clipPath>
  </defs>
</svg>